<?xml version="1.0" ?><svg style="enable-background:new 0 0 512 512;" version="1.1" viewBox="0 0 512 512" xml:space="preserve" xmlns="http://www.w3.org/2000/svg" xmlns:xlink="http://www.w3.org/1999/xlink"><style type="text/css">
	.st0{fill:#C8C6CC;}
	.st1{fill:#78CBED;}
	.st2{fill:#34B6E2;}
	.st3{fill:#FFFFFF;}
	.st4{fill:#F6D6C5;}
	.st5{fill:#C76D33;}
	.st6{fill:#DF8A57;}
	.st7{fill:#FFD6BC;}
	.st8{fill:#F85647;}
	.st9{fill:#FFB88C;}
	.st10{fill:#FF97C1;}
	.st11{fill:#00C755;}
	.st12{fill:#55D47B;}
	.st13{fill:#FF9A5C;}
	.st14{fill:#F54432;}
	.st15{fill:#948EA3;}
	.st16{fill:#FD7A6E;}
	.st17{fill:#77728D;}
	.st18{fill:none;}
	.st19{fill:#FF7E27;}
	.st20{fill:#EAAA83;}
	.st21{fill:#E83826;}
</style><g id="Layer_1"/><g id="Layer_2"/><g id="Layer_3"/><g id="Layer_4"/><g id="Layer_5"/><g id="Layer_6"/><g id="Layer_7"/><g id="Layer_8"/><g id="Layer_9"/><g id="Layer_10"/><g id="Layer_11"/><g id="Layer_12"/><g id="Layer_13"/><g id="Layer_14"/><g id="Layer_15"/><g id="Layer_16"/><g id="Layer_17"/><g id="Layer_18"/><g id="Layer_19"/><g id="Layer_20"/><g id="Layer_21"/><g id="Layer_22"/><g id="Layer_23"/><g id="Layer_24"/><g id="Layer_25"/><g id="Layer_26"/><g id="Layer_27"/><g id="Layer_28"/><g id="Layer_29"/><g id="Layer_30"/><g id="Layer_31"/><g id="Layer_32"/><g id="Layer_33"/><g id="Layer_34"/><g id="Layer_35"/><g id="Layer_36"/><g id="Layer_37"/><g id="Layer_38"/><g id="Layer_39"/><g id="Layer_40"/><g id="Layer_41"/><g id="Layer_42"/><g id="Layer_43"/><g id="Layer_44"/><g id="Layer_45"/><g id="Layer_46"/><g id="Layer_47"/><g id="Layer_48"/><g id="Layer_49"/><g id="Layer_50"><g><g><path class="st6" d="M143.339,64.369L143.339,64.369c-5.029-4.075-10.057-8.15-15.086-12.225     c-7.464-6.049-19.26-5.114-25.718,2.036c-4.529,5.014-9.057,10.028-13.586,15.043c0,0,0,0,0,0     c-48.672,4.344-85.013,42.885-81.17,86.084c1.145,12.873,4.581,51.491,4.581,51.491c1.023,11.504,11.164,19.999,22.65,18.974     l188.439-16.817c11.486-1.025,19.967-11.182,18.944-22.686l-4.629-52.036C233.947,91.336,191.671,60.056,143.339,64.369z"/><path class="st9" d="M223.449,208.956L35.009,225.773c-1.849,0.165-3.656,0.059-5.403-0.242l4.204,47.261     c3.486,39.189,40.466,67.909,82.597,64.149h0c4.641,3.768,9.282,7.536,13.924,11.303c6.619,5.374,16.811,4.356,22.222-2.218     c3.645-4.429,7.29-8.858,10.935-13.287h0c41.837-3.734,72.947-38.308,69.485-77.224l-4.248-47.755     C227.058,208.366,225.298,208.791,223.449,208.956z"/><ellipse class="st0" cx="73.9" cy="125.584" rx="7.83" ry="7.842"/><ellipse class="st0" cx="120.693" cy="121.408" rx="7.83" ry="7.842"/><ellipse class="st0" cx="167.485" cy="117.232" rx="7.83" ry="7.842"/><ellipse class="st0" cx="62.472" cy="173.843" rx="7.83" ry="7.842"/><ellipse class="st0" cx="124.862" cy="168.275" rx="7.83" ry="7.842"/><ellipse class="st0" cx="187.252" cy="162.707" rx="7.83" ry="7.842"/><path class="st6" d="M434.368,190.6L434.368,190.6c-3.533-5.427-7.067-10.854-10.6-16.28     c-5.245-8.055-16.755-10.801-25.097-5.986c-5.849,3.376-11.698,6.752-17.547,10.127c0,0,0,0,0,0     c-47.646-10.863-94.061,14.613-103.672,56.902c-2.864,12.602-11.456,50.406-11.456,50.406     c-2.559,11.261,4.481,22.469,15.724,25.032l184.467,42.056c11.244,2.563,22.433-4.488,24.992-15.749l11.577-50.939     C512.301,244.175,481.683,201.387,434.368,190.6z"/><path class="st9" d="M466.188,352.858l-184.467-42.056c-1.81-0.413-3.497-1.07-5.067-1.895l-10.514,46.265     c-8.719,38.363,17.647,77.084,58.89,86.487l0,0c3.259,5.015,6.518,10.03,9.777,15.045c4.648,7.152,14.658,9.325,21.825,4.736     c4.829-3.091,9.657-6.183,14.486-9.274l0,0c40.955,9.337,81.175-13.976,89.833-52.071l10.624-46.749     C469.803,353.409,467.998,353.27,466.188,352.858z"/><ellipse class="st0" cx="349.496" cy="227.453" rx="7.83" ry="7.842"/><ellipse class="st0" cx="395.303" cy="237.896" rx="7.83" ry="7.842"/><ellipse class="st0" cx="441.109" cy="248.339" rx="7.83" ry="7.842"/><ellipse class="st0" cx="323.801" cy="269.851" rx="7.83" ry="7.842"/><ellipse class="st0" cx="384.876" cy="283.775" rx="7.83" ry="7.842"/><ellipse class="st0" cx="445.951" cy="297.7" rx="7.83" ry="7.842"/></g><g><path class="st3" d="M89.849,312.866c-1.503,0-3.021-0.45-4.339-1.388c-2.854-2.029-5.595-4.296-8.144-6.738     c-2.991-2.865-3.093-7.613-0.228-10.604c2.865-2.992,7.613-3.094,10.604-0.228c2.024,1.938,4.197,3.736,6.458,5.344     c3.376,2.399,4.167,7.082,1.768,10.458C94.505,311.769,92.194,312.866,89.849,312.866z"/></g><g><path class="st3" d="M67.541,284.884c-2.952,0-5.75-1.753-6.94-4.653c-4.206-10.239-5.979-21.539-5.128-32.675     c0.315-4.13,3.906-7.224,8.049-6.907c4.13,0.315,7.222,3.919,6.907,8.049c-0.673,8.815,0.727,17.749,4.047,25.835     c1.574,3.832-0.257,8.213-4.088,9.787C69.455,284.702,68.49,284.884,67.541,284.884z"/></g><g><path class="st3" d="M305.455,410.82c-2.335,0-4.637-1.087-6.102-3.13c-3.706-5.169-6.665-10.841-8.793-16.86     c-1.381-3.905,0.665-8.19,4.57-9.572c3.903-1.384,8.19,0.665,9.572,4.57c1.658,4.687,3.96,9.102,6.842,13.122     c2.414,3.366,1.641,8.052-1.725,10.465C308.496,410.363,306.968,410.82,305.455,410.82z"/></g><g><path class="st3" d="M293.121,373.49c-3.921,0-7.22-3.047-7.477-7.016c-0.664-10.254,1.118-20.72,5.152-30.268     c1.612-3.815,6.012-5.602,9.828-3.989c3.815,1.612,5.602,6.013,3.989,9.828c-3.131,7.409-4.515,15.521-4,23.46     c0.268,4.133-2.866,7.701-7,7.969C293.448,373.485,293.284,373.49,293.121,373.49z"/></g></g><g><path d="M245.234,133.57c-2.039-22.914-13.946-43.513-33.528-58.001c-18.525-13.707-41.835-20.364-65.958-18.9l-12.773-10.351    c-10.648-8.63-26.801-7.357-36.007,2.836L85.312,62.06c-15.848,1.859-31.029,7.219-44.076,15.584    c-3.487,2.235-4.501,6.875-2.265,10.362c2.235,3.486,6.875,4.501,10.362,2.265c11.833-7.586,25.762-12.282,40.282-13.578    c1.883-0.168,3.632-1.041,4.899-2.443L108.1,59.208c3.818-4.226,11.029-4.803,15.431-1.236l15.085,12.225    c1.514,1.228,3.452,1.817,5.389,1.643c21.546-1.921,42.421,3.684,58.779,15.787c16.086,11.902,25.856,28.69,27.509,47.272    l4.629,52.036c0.547,6.141-3.152,11.684-8.652,13.745c-0.036,0.012-0.073,0.02-0.109,0.033c-0.546,0.199-1.092,0.36-1.633,0.487    c-0.032,0.007-0.063,0.016-0.095,0.023c-0.193,0.044-0.385,0.078-0.577,0.112c-0.353,0.061-0.707,0.118-1.07,0.151    c-0.001,0-0.003,0-0.004,0h0l-188.44,16.817c0,0-0.001,0-0.001,0c-0.354,0.031-0.707,0.039-1.058,0.042    c-0.199,0-0.399,0-0.601-0.009c-0.034-0.001-0.068-0.004-0.102-0.006c-0.556-0.029-1.122-0.092-1.696-0.191    c-0.082-0.014-0.164-0.017-0.246-0.028c-2.208-0.421-4.286-1.392-6.059-2.877c-2.744-2.298-4.43-5.53-4.747-9.101l-4.581-51.491    c-1.295-14.554,2.468-28.984,10.882-41.728c2.282-3.457,1.33-8.109-2.126-10.391c-3.456-2.282-8.109-1.33-10.391,2.126    C3.311,120.256-1.29,138.002,0.308,155.972l4.581,51.491c0.672,7.558,4.244,14.401,10.056,19.271    c2.327,1.949,4.91,3.464,7.645,4.567l3.75,42.156c1.873,21.052,12.413,40.03,29.677,53.439    c16.312,12.668,36.789,18.915,57.968,17.74l11.619,9.432c4.224,3.429,9.426,5.094,14.616,5.094c6.807,0,13.594-2.864,18.124-8.369    l8.99-10.923c44.277-5.538,76.843-43.046,73.11-85.019l-3.795-42.653c8.747-5.503,14.192-15.604,13.214-26.593L245.234,133.57z     M162.821,325.27c-2.001,0.179-3.848,1.153-5.125,2.705l-10.935,13.287c-2.802,3.404-8.271,3.947-11.704,1.161l-13.923-11.303    c-1.342-1.089-3.012-1.677-4.727-1.677c-0.222,0-0.444,0.01-0.667,0.03c-18.483,1.648-36.424-3.473-50.523-14.422    c-13.937-10.824-22.438-26.067-23.937-42.921l-3.477-39.074l184.177-16.437l3.52,39.564    C228.592,290.916,200.473,321.909,162.821,325.27z"/><ellipse cx="73.9" cy="125.584" rx="7.842" ry="7.83" transform="matrix(0.0012 -1 1 0.0012 -51.772 199.3349)"/><path d="M119.998,113.597c-4.307,0.384-7.488,4.193-7.104,8.507c0.384,4.314,4.186,7.5,8.494,7.115    c4.307-0.385,7.488-4.193,7.104-8.507C128.108,116.398,124.305,113.213,119.998,113.597z"/><path d="M168.18,125.043c4.307-0.384,7.488-4.193,7.104-8.507c-0.384-4.314-4.187-7.5-8.494-7.115    c-4.307,0.384-7.488,4.193-7.104,8.507C160.07,122.242,163.873,125.428,168.18,125.043z"/><path d="M61.777,166.032c-4.307,0.384-7.488,4.193-7.104,8.507s4.187,7.5,8.494,7.115c4.307-0.384,7.488-4.193,7.104-8.507    S66.084,165.648,61.777,166.032z"/><path d="M124.167,160.464c-4.307,0.384-7.488,4.193-7.104,8.507s4.187,7.5,8.494,7.115s7.488-4.193,7.104-8.507    C132.277,163.265,128.474,160.08,124.167,160.464z"/><path d="M187.947,170.519c4.307-0.385,7.488-4.193,7.104-8.507c-0.384-4.314-4.187-7.5-8.494-7.115s-7.488,4.193-7.104,8.507    S183.64,170.903,187.947,170.519z"/><path d="M439.031,184.016l-8.977-13.788c-7.482-11.489-23.242-15.253-35.131-8.389l-15.051,8.686    c-23.894-4.766-48.093-1.295-68.455,9.881c-21.488,11.794-36.147,30.722-41.277,53.295l-11.456,50.406    c-2.444,10.757,1.594,21.5,9.523,28.131l-9.38,41.271c-9.405,41.386,18.056,83.242,61.53,94.722l8.162,12.559    c4.411,6.788,12.081,10.528,19.808,10.528c4.28,0,8.58-1.148,12.35-3.562l11.905-7.622c21.086,4.042,42.388,0.421,60.315-10.311    c3.554-2.127,4.71-6.733,2.583-10.287c-2.127-3.554-6.733-4.711-10.287-2.583c-15.484,9.269-34.094,12.075-52.407,7.9    c-1.96-0.446-4.018-0.088-5.711,0.996l-14.486,9.274c-3.71,2.375-9.081,1.205-11.492-2.506l-9.777-15.045    c-1.063-1.635-2.72-2.792-4.622-3.226c-37.147-8.469-61.032-43.241-53.244-77.512l8.691-38.243l180.296,41.106l-8.803,38.736    c-1.166,5.126-3.004,10.063-5.466,14.671c-1.952,3.653-0.572,8.197,3.081,10.149c3.652,1.95,8.197,0.573,10.149-3.082    c3.092-5.787,5.401-11.982,6.863-18.414l9.486-41.74c2.859-0.724,5.622-1.886,8.19-3.504c6.415-4.042,10.873-10.343,12.554-17.742    l11.577-50.939C520.311,242.775,488.591,196.814,439.031,184.016z M495.444,284.507l-11.577,50.939    c-0.794,3.494-2.898,6.469-5.924,8.376c-1.948,1.228-4.129,1.91-6.365,2.034c-0.09,0-0.179-0.009-0.27-0.005    c-0.601,0.022-1.189,0.007-1.761-0.043c-0.01-0.001-0.019-0.001-0.029-0.002c-0.573-0.051-1.129-0.138-1.663-0.26l-184.467-42.057    c-0.357-0.081-0.701-0.187-1.044-0.295c-0.185-0.06-0.37-0.119-0.555-0.188c-0.033-0.012-0.064-0.026-0.096-0.038    c-0.518-0.198-1.035-0.431-1.549-0.701c-0.033-0.017-0.068-0.029-0.101-0.046c-5.177-2.782-8.099-8.777-6.733-14.79l11.456-50.406    c4.166-18.332,16.194-33.769,33.868-43.47c12.187-6.689,26.042-10.112,40.327-10.112c6.779,0,13.656,0.771,20.496,2.331    c1.841,0.42,3.778,0.128,5.416-0.816l17.547-10.127c4.93-2.846,11.968-1.171,15.063,3.583l10.6,16.28    c1.063,1.632,2.719,2.787,4.618,3.22C475.91,207.764,504.057,246.61,495.444,284.507z"/><path d="M351.234,219.806c-4.216-0.961-8.412,1.683-9.372,5.906c-0.96,4.223,1.68,8.426,5.897,9.387    c4.216,0.961,8.412-1.683,9.372-5.906C358.09,224.97,355.45,220.767,351.234,219.806z"/><path d="M397.04,230.25c-4.216-0.961-8.412,1.683-9.372,5.906c-0.96,4.223,1.68,8.426,5.897,9.387    c4.216,0.961,8.412-1.683,9.372-5.906S401.257,231.211,397.04,230.25z"/><path d="M448.743,250.08c0.96-4.223-1.68-8.426-5.896-9.387c-4.216-0.961-8.412,1.683-9.372,5.906    c-0.96,4.223,1.68,8.426,5.897,9.387C443.587,256.947,447.783,254.303,448.743,250.08z"/><ellipse cx="323.801" cy="269.851" rx="7.83" ry="7.842" transform="matrix(1 -0.002 0.002 1 -0.5381 0.647)"/><ellipse cx="384.876" cy="283.775" rx="7.83" ry="7.842" transform="matrix(1 -0.001 0.001 1 -0.2883 0.3915)"/><path d="M447.689,290.053c-4.216-0.961-8.412,1.683-9.372,5.906c-0.96,4.223,1.68,8.426,5.897,9.387    c4.216,0.961,8.412-1.683,9.372-5.906C454.545,295.217,451.905,291.014,447.689,290.053z"/><path d="M94.2,299.253c-2.261-1.608-4.434-3.406-6.458-5.344c-2.991-2.866-7.739-2.764-10.604,0.228    c-2.865,2.991-2.763,7.739,0.228,10.604c2.549,2.442,5.289,4.709,8.144,6.738c1.318,0.938,2.836,1.388,4.339,1.388    c2.346,0,4.657-1.098,6.119-3.155C98.368,306.335,97.576,301.652,94.2,299.253z"/><path d="M70.429,248.698c0.315-4.13-2.777-7.734-6.907-8.049c-4.143-0.316-7.734,2.777-8.049,6.907    c-0.851,11.137,0.922,22.436,5.128,32.675c1.19,2.899,3.989,4.653,6.94,4.653c0.949,0,1.914-0.182,2.846-0.564    c3.832-1.573,5.662-5.955,4.088-9.787C71.155,266.447,69.756,257.513,70.429,248.698z"/><path d="M299.354,407.689c1.465,2.043,3.766,3.13,6.102,3.13c1.513,0,3.041-0.457,4.364-1.405    c3.366-2.414,4.139-7.099,1.725-10.465c-2.882-4.021-5.185-8.436-6.842-13.122c-1.382-3.905-5.668-5.954-9.572-4.57    c-3.905,1.381-5.951,5.667-4.57,9.572C292.689,396.848,295.647,402.521,299.354,407.689z"/><path d="M300.624,332.217c-3.816-1.612-8.216,0.174-9.828,3.989c-4.034,9.547-5.815,20.014-5.152,30.268    c0.257,3.969,3.556,7.016,7.477,7.016c0.163,0,0.327-0.005,0.492-0.016c4.134-0.268,7.268-3.835,7-7.969    c-0.514-7.938,0.869-16.051,4-23.46C306.226,338.23,304.439,333.83,300.624,332.217z"/></g></g></svg>